<svg xmlns="http://www.w3.org/2000/svg" width="101" height="26" viewBox="0 0 101 26"><path d="M59.151 5.053h2.965v15.958h-2.965zm15.609 0h-6.227v15.965h6.227c5.549 0 7.99-4.082 7.926-8.116-.07-3.95-2.493-7.85-7.926-7.85zm0 13.064H71.5V7.903h3.26c3.44 0 4.89 2.486 4.958 4.97.067 2.6-1.364 5.244-4.958 5.244zm-23.002-7.752c0-2.758-1.97-5.266-5.704-5.29-2.513 0-5.026-.022-7.538-.022v15.982h2.988V15.7h2.875l4.617 5.335h3.737L47.75 15.38c3.01-.616 4.007-2.827 4.007-5.016zm-10.254 2.622V7.88h4.55c1.878 0 2.717 1.277 2.717 2.554s-.815 2.553-2.717 2.553h-4.55zm59.461-5.016V5.053H89.103v15.965h11.862v-2.965h-8.896v-3.607h8.579v-2.804h-8.579V7.971zM12.839 25.974c-3.405 0-6.67-1.362-9.078-3.787A12.976 12.976 0 0 1 0 13.044h3.21a9.726 9.726 0 0 0 4.122 7.95 9.58 9.58 0 0 0 8.831 1.154l-7.586-9.102h4.26a1.51 1.51 0 0 0 1.463-1.514 1.51 1.51 0 0 0-1.462-1.514H.354C1.594 4.821 5.88.927 11.14.22 16.4-.488 21.551 2.138 24.1 6.826a13.004 13.004 0 0 1-1.454 14.556l-2.105-2.525c3.177-4.293 2.297-10.367-1.965-13.566-4.263-3.2-10.293-2.314-13.47 1.979h7.733a4.24 4.24 0 0 1 4.17 3.55 4.265 4.265 0 0 1-2.777 4.734l6.442 7.732a12.725 12.725 0 0 1-7.837 2.688"/></svg>